<svg width="25" height="25" viewBox="0 0 25 25" fill="none" xmlns="http://www.w3.org/2000/svg">
<path d="M19.6429 8.03572C19.6429 8.62772 19.3842 9.19547 18.9237 9.61408C18.4632 10.0327 17.8387 10.2679 17.1875 10.2679C16.5363 10.2679 15.9118 10.0327 15.4513 9.61408C14.9908 9.19547 14.7321 8.62772 14.7321 8.03572C14.7321 7.44372 14.9908 6.87596 15.4513 6.45735C15.9118 6.03875 16.5363 5.80357 17.1875 5.80357C17.8387 5.80357 18.4632 6.03875 18.9237 6.45735C19.3842 6.87596 19.6429 7.44372 19.6429 8.03572Z" fill="#494949"/>
<path fill-rule="evenodd" clip-rule="evenodd" d="M12.4337 0H12.5663C15.2512 0 17.3547 6.93077e-08 18.9965 0.22093C20.6756 0.446512 22.0012 0.918605 23.0419 1.95814C24.0826 2.99884 24.5535 4.32442 24.7791 6.00465C25 7.64535 25 9.74884 25 12.4337V12.536C25 14.7558 25 16.5721 24.8791 18.0512C24.7581 19.5395 24.5105 20.7802 23.9547 21.8128C23.7105 22.2674 23.4081 22.6756 23.0419 23.0419C22.0012 24.0826 20.6756 24.5535 18.9953 24.7791C17.3547 25 15.2512 25 12.5663 25H12.4337C9.74884 25 7.64535 25 6.00349 24.7791C4.32442 24.5535 2.99884 24.0814 1.95814 23.0419C1.03605 22.1198 0.559302 20.9721 0.306977 19.5465C0.0569768 18.1477 0.0116279 16.407 0.00232555 14.2465C-3.00514e-08 13.6965 0 13.1151 0 12.5012V12.4337C0 9.74884 6.93077e-08 7.64535 0.22093 6.00349C0.446512 4.32442 0.918605 2.99884 1.95814 1.95814C2.99884 0.917442 4.32442 0.446512 6.00465 0.22093C7.64535 6.93077e-08 9.74884 0 12.4337 0ZM6.23605 1.94884C4.75 2.14884 3.85349 2.53023 3.19186 3.19186C2.52907 3.85465 2.14884 4.75 1.94884 6.23721C1.74651 7.74884 1.74419 9.73488 1.74419 12.5V13.4814L2.90814 12.4628C3.41869 12.0159 4.08002 11.7797 4.75818 11.8022C5.43633 11.8246 6.0806 12.104 6.56047 12.5837L11.5488 17.5721C11.9359 17.9591 12.4472 18.1972 12.9925 18.2444C13.5378 18.2916 14.0824 18.145 14.5302 17.8302L14.8767 17.586C15.5229 17.132 16.304 16.9107 17.0923 16.9582C17.8805 17.0057 18.6294 17.3193 19.2163 17.8477L22.507 20.8093C22.8395 20.114 23.036 19.2 23.1407 17.9105C23.2547 16.5093 23.2558 14.7628 23.2558 12.5C23.2558 9.73488 23.2535 7.74884 23.0512 6.23721C22.8512 4.75 22.4698 3.85349 21.8081 3.1907C21.1453 2.52907 20.25 2.14884 18.7628 1.94884C17.2512 1.74651 15.2651 1.74419 12.5 1.74419C9.73488 1.74419 7.74767 1.74651 6.23605 1.94884Z" fill="#494949"/>
</svg>
