<svg width="31" height="31" viewBox="0 0 31 31" fill="none" xmlns="http://www.w3.org/2000/svg">
<path d="M29.3336 13.6169V15.6669C29.3336 22.1095 29.3336 25.3307 27.3314 27.3315C25.3319 29.3337 22.1093 29.3337 15.6668 29.3337C9.22426 29.3337 6.003 29.3337 4.00082 27.3315C2 25.3321 2 22.1095 2 15.6669C2 9.22442 2 6.00315 4.00082 4.00097C6.00437 2.00015 9.22426 2.00015 15.6668 2.00015H17.7168" stroke="white" stroke-width="3" stroke-linecap="round"/>
<path d="M22.0246 3.98868L22.9116 3.10171C23.6173 2.39617 24.5744 1.99987 25.5723 2C26.5702 2.00013 27.5272 2.39667 28.2327 3.10239C28.9383 3.80811 29.3346 4.7652 29.3344 5.76311C29.3343 6.76103 28.9378 7.71801 28.232 8.42355L27.3437 9.31053C27.3437 9.31053 25.4604 9.19983 23.7985 7.53658C22.1353 5.8747 22.0246 3.99005 22.0246 3.99005L13.8723 12.1409C13.3202 12.6931 13.0441 12.9691 12.8063 13.2739C12.5262 13.632 12.287 14.0215 12.0902 14.4328C11.9248 14.7813 11.8018 15.1517 11.5545 15.8925L10.7631 18.2636M10.7631 18.2636L10.252 19.7971C10.1919 19.9759 10.1829 20.168 10.2259 20.3516C10.269 20.5353 10.3625 20.7034 10.4958 20.8368C10.6291 20.9703 10.7971 21.064 10.9807 21.1072C11.1644 21.1505 11.3564 21.1417 11.5353 21.0817L13.0701 20.5706M10.7631 18.2636L13.0701 20.5706M27.3451 9.30916L19.1928 17.4614C18.6407 18.0135 18.3646 18.2896 18.0598 18.5274C17.7007 18.8075 17.3121 19.0476 16.9009 19.2435C16.5524 19.4089 16.182 19.5319 15.4413 19.7793L13.0701 20.5706" stroke="white" stroke-width="3"/>
</svg>
