<svg width="60" height="60" viewBox="0 0 60 60" fill="none" xmlns="http://www.w3.org/2000/svg">
<path d="M30 0C13.4375 0 0 13.4375 0 30C0 46.575 13.4375 60 30 60C46.575 60 60 46.575 60 30C60 13.425 46.575 0 30 0ZM30 7.5C42.425 7.5 52.5 17.575 52.5 30C52.5 42.425 42.425 52.5 30 52.5C17.575 52.5 7.5 42.425 7.5 30C7.5 17.575 17.575 7.5 30 7.5ZM41.4125 15.525C40.6 15.525 39.85 15.825 39.3125 16.55C32.8125 25.3125 30.6875 28.6125 26.0625 37.775C25.0125 36.3875 17.8625 28.725 14.325 26.0125C12.55 24.65 9.1625 29.4125 10.375 30.65C15.825 36.2625 25.5125 48.75 27.0875 48.625C29.7625 48.4125 36.475 31.525 45.6875 19.4125C46.6875 18.1125 43.8125 15.5 41.4125 15.525Z" fill="#41B468"/>
</svg>
